<?xml version="1.0" standalone="no"?>
<!DOCTYPE svg PUBLIC "-//W3C//DTD SVG 20010904//EN"
 "http://www.w3.org/TR/2001/REC-SVG-20010904/DTD/svg10.dtd">
<svg version="1.0" xmlns="http://www.w3.org/2000/svg"
 width="354.000000pt" height="354.000000pt" viewBox="0 0 354.000000 354.000000"
 preserveAspectRatio="xMidYMid meet">
<metadata>
Created by potrace 1.14, written by Peter Selinger 2001-2017
</metadata>
<g transform="translate(0.000000,354.000000) scale(0.100000,-0.100000)"
fill="#000000" stroke="none">
<path d="M430 2274 c-124 -19 -161 -28 -188 -44 l-32 -20 0 -146 c0 -80 5
-154 10 -164 14 -26 93 -48 215 -60 128 -12 1536 -12 1674 0 125 11 207 33
221 60 5 10 10 84 10 164 0 226 83 209 -1025 212 -473 1 -871 0 -885 -2z
m1717 -54 c43 -6 93 -16 111 -21 l33 -11 -3 -131 -3 -132 -37 -12 c-83 -27
-257 -33 -977 -33 -710 1 -888 6 -972 31 l-39 12 0 133 0 132 33 11 c18 6 60
15 92 20 89 13 1666 13 1762 1z"/>
<path d="M1570 2170 c0 -13 7 -20 20 -20 13 0 20 7 20 20 0 13 -7 20 -20 20
-13 0 -20 -7 -20 -20z"/>
<path d="M373 2128 c-29 -14 -47 -67 -34 -101 12 -31 48 -57 79 -57 36 0 81
28 82 51 0 14 -40 16 -51 3 -17 -21 -47 -17 -60 7 -22 43 25 91 57 59 7 -7 20
-7 34 -2 l23 8 -28 22 c-30 24 -67 27 -102 10z"/>
<path d="M547 2063 c-15 -43 -27 -81 -27 -85 0 -5 11 -8 25 -8 16 0 25 6 25
15 0 21 59 20 74 -1 7 -9 21 -14 33 -12 20 3 19 5 -11 85 -29 78 -33 83 -61
83 -29 0 -32 -4 -58 -77z m73 -10 c0 -7 -7 -13 -15 -13 -16 0 -19 9 -9 35 5
13 8 14 15 3 5 -7 9 -19 9 -25z"/>
<path d="M720 2055 c0 -84 0 -85 25 -85 23 0 25 4 25 48 l0 47 31 -47 c23 -35
38 -48 55 -48 23 0 24 2 24 85 0 84 0 85 -25 85 -23 0 -25 -4 -25 -47 l0 -48
-31 48 c-23 34 -38 47 -55 47 -23 0 -24 -2 -24 -85z"/>
<path d="M937 2063 c-15 -43 -27 -81 -27 -85 0 -5 11 -8 25 -8 16 0 25 6 25
15 0 21 59 20 74 -1 7 -9 21 -14 33 -12 20 3 19 5 -11 85 -29 78 -33 83 -61
83 -29 0 -32 -4 -58 -77z m73 -10 c0 -7 -7 -13 -15 -13 -16 0 -19 9 -9 35 5
13 8 14 15 3 5 -7 9 -19 9 -25z"/>
<path d="M1110 2055 c0 -84 0 -85 25 -85 23 0 25 4 25 48 l0 47 31 -47 c23
-35 38 -48 55 -48 23 0 24 2 24 85 0 84 0 85 -25 85 -23 0 -25 -4 -25 -47 l0
-48 -31 48 c-23 34 -38 47 -55 47 -23 0 -24 -2 -24 -85z"/>
<path d="M1408 2129 c-21 -12 -24 -52 -5 -66 6 -6 26 -15 42 -20 17 -5 30 -16
30 -23 0 -20 -21 -23 -38 -5 -17 17 -57 21 -57 5 0 -5 9 -19 20 -30 39 -39
130 -15 130 34 0 29 -17 44 -59 52 -17 4 -34 11 -37 15 -8 14 26 23 39 10 16
-16 47 -14 47 4 0 30 -74 46 -112 24z"/>
<path d="M1560 2055 c0 -84 0 -85 25 -85 25 0 25 1 25 85 0 84 0 85 -25 85
-25 0 -25 -1 -25 -85z"/>
<path d="M1650 2055 c0 -84 0 -85 25 -85 23 0 25 4 25 48 l0 47 31 -47 c23
-35 38 -48 55 -48 23 0 24 2 24 85 0 84 0 85 -25 85 -23 0 -25 -4 -25 -47 l0
-48 -31 48 c-23 34 -38 47 -55 47 -23 0 -24 -2 -24 -85z"/>
<path d="M1867 2063 c-15 -43 -27 -81 -27 -85 0 -5 11 -8 25 -8 16 0 25 6 25
15 0 21 59 20 74 -1 7 -9 21 -14 33 -12 20 3 19 5 -11 85 -29 78 -33 83 -61
83 -29 0 -32 -4 -58 -77z m73 -10 c0 -7 -7 -13 -15 -13 -16 0 -19 9 -9 35 5
13 8 14 15 3 5 -7 9 -19 9 -25z"/>
<path d="M2040 2055 c0 -84 0 -85 25 -85 23 0 25 4 25 48 l0 47 31 -47 c23
-35 38 -48 55 -48 23 0 24 2 24 85 0 84 0 85 -25 85 -23 0 -25 -4 -25 -47 l0
-48 -31 48 c-23 34 -38 47 -55 47 -23 0 -24 -2 -24 -85z"/>
</g>
</svg>
